<svg xmlns="http://www.w3.org/2000/svg" xmlns:xlink="http://www.w3.org/1999/xlink" width="500" zoomAndPan="magnify" viewBox="0 0 375 374.999991" height="500" preserveAspectRatio="xMidYMid meet" version="1.0"><defs><clipPath id="4f86c04897"><path d="M 112.5 112.5 L 262.5 112.5 L 262.5 262.5 L 112.5 262.5 Z M 112.5 112.5 " clip-rule="nonzero"/></clipPath></defs><g clip-path="url(#4f86c04897)"><path fill="#ffffff" d="M 187.507812 262.5 C 146.152344 262.5 112.507812 228.855469 112.507812 187.5 C 112.507812 146.144531 146.152344 112.5 187.507812 112.5 L 187.507812 114.789062 C 147.414062 114.789062 114.796875 147.40625 114.796875 187.5 C 114.796875 227.59375 147.414062 260.210938 187.507812 260.210938 C 226.996094 260.210938 259.609375 228.097656 260.207031 188.628906 L 262.5 188.664062 C 262.199219 208.449219 254.261719 227.003906 240.15625 240.914062 C 226.050781 254.820312 207.339844 262.5 187.507812 262.5 Z M 187.507812 262.5 " fill-opacity="1" fill-rule="nonzero"/></g></svg>