<svg xmlns="http://www.w3.org/2000/svg" xmlns:xlink="http://www.w3.org/1999/xlink" width="500" zoomAndPan="magnify" viewBox="0 0 375 374.999991" height="500" preserveAspectRatio="xMidYMid meet" version="1.0"><defs><g/><clipPath id="b1dcd3dffe"><path d="M 112.5 83.8125 L 262.5 83.8125 L 262.5 233.8125 L 112.5 233.8125 Z M 112.5 83.8125 " clip-rule="nonzero"/></clipPath></defs><g clip-path="url(#b1dcd3dffe)"><path fill="#ffffff" d="M 187.507812 233.8125 C 146.152344 233.8125 112.507812 200.167969 112.507812 158.8125 C 112.507812 117.460938 146.152344 83.8125 187.507812 83.8125 L 187.507812 86.105469 C 147.414062 86.105469 114.796875 118.722656 114.796875 158.8125 C 114.796875 198.90625 147.414062 231.523438 187.507812 231.523438 C 226.996094 231.523438 259.609375 199.414062 260.207031 159.941406 L 262.5 159.976562 C 262.199219 179.765625 254.261719 198.316406 240.15625 212.226562 C 226.050781 226.136719 207.339844 233.8125 187.507812 233.8125 Z M 187.507812 233.8125 " fill-opacity="1" fill-rule="nonzero"/></g><g fill="#e1b66e" fill-opacity="1"><g transform="translate(63.717357, 262.475637)"><g><path d="M 11.65625 -15.015625 L 11.421875 -11.5 L 11.34375 -11.484375 C 10.75 -12.359375 9.742188 -12.929688 8.328125 -13.203125 C 7.878906 -13.285156 7.453125 -13.328125 7.046875 -13.328125 C 6.640625 -13.328125 6.289062 -13.289062 6 -13.21875 C 5.707031 -13.144531 5.457031 -13.039062 5.25 -12.90625 C 4.8125 -12.625 4.59375 -12.25 4.59375 -11.78125 C 4.59375 -11.175781 4.785156 -10.722656 5.171875 -10.421875 C 5.640625 -10.054688 6.425781 -9.800781 7.53125 -9.65625 C 8.644531 -9.507812 9.535156 -9.304688 10.203125 -9.046875 C 10.878906 -8.796875 11.429688 -8.472656 11.859375 -8.078125 C 12.671875 -7.347656 13.078125 -6.3125 13.078125 -4.96875 C 13.078125 -3.21875 12.414062 -1.867188 11.09375 -0.921875 C 9.957031 -0.109375 8.53125 0.296875 6.8125 0.296875 C 5.425781 0.296875 4.054688 0.0351562 2.703125 -0.484375 C 2.253906 -0.660156 1.863281 -0.863281 1.53125 -1.09375 L 1.65625 -5.09375 L 1.703125 -5.125 C 2.691406 -3.425781 4.316406 -2.578125 6.578125 -2.578125 C 8.179688 -2.578125 9.238281 -2.960938 9.75 -3.734375 C 9.925781 -3.992188 10.015625 -4.285156 10.015625 -4.609375 C 10.015625 -4.929688 9.960938 -5.195312 9.859375 -5.40625 C 9.753906 -5.625 9.582031 -5.804688 9.34375 -5.953125 C 8.882812 -6.253906 8.109375 -6.457031 7.015625 -6.5625 C 5.921875 -6.664062 5.023438 -6.859375 4.328125 -7.140625 C 3.640625 -7.429688 3.085938 -7.789062 2.671875 -8.21875 C 1.921875 -8.976562 1.546875 -10.046875 1.546875 -11.421875 C 1.546875 -12.835938 2.046875 -13.984375 3.046875 -14.859375 C 4.054688 -15.753906 5.421875 -16.203125 7.140625 -16.203125 C 8.859375 -16.203125 10.363281 -15.804688 11.65625 -15.015625 Z M 11.65625 -15.015625 "/></g></g></g><g fill="#e1b66e" fill-opacity="1"><g transform="translate(81.251593, 262.475637)"><g><path d="M 10.046875 -2.875 C 10.546875 -2.875 10.890625 -2.921875 11.078125 -3.015625 L 11.125 -3 L 11.015625 0 L 2.0625 0 L 2.0625 -15.984375 C 2.269531 -15.960938 2.507812 -15.953125 2.78125 -15.953125 L 3.609375 -15.921875 C 4.171875 -15.910156 4.773438 -15.90625 5.421875 -15.90625 C 7.253906 -15.90625 9.0625 -15.9375 10.84375 -16 C 10.757812 -15.289062 10.71875 -14.351562 10.71875 -13.1875 C 10.71875 -13.0625 10.722656 -12.96875 10.734375 -12.90625 L 10.71875 -12.859375 C 10.300781 -12.984375 9.707031 -13.046875 8.9375 -13.046875 L 5.171875 -13.046875 L 5.171875 -10 L 8.015625 -10 C 8.890625 -10 9.414062 -10.019531 9.59375 -10.0625 L 9.625 -7.109375 C 9.238281 -7.148438 8.742188 -7.171875 8.140625 -7.171875 L 5.171875 -7.171875 L 5.171875 -2.875 Z M 10.046875 -2.875 "/></g></g></g><g fill="#e1b66e" fill-opacity="1"><g transform="translate(96.790574, 262.475637)"><g><path d="M 7.203125 -6.1875 C 6.960938 -6.164062 6.707031 -6.15625 6.4375 -6.15625 C 6.164062 -6.15625 5.757812 -6.175781 5.21875 -6.21875 L 5.21875 0 L 2.0625 0 L 2.0625 -15.984375 C 3.175781 -16.128906 4.546875 -16.203125 6.171875 -16.203125 C 8.390625 -16.203125 10.039062 -15.789062 11.125 -14.96875 C 12.207031 -14.15625 12.75 -12.894531 12.75 -11.1875 C 12.75 -9.863281 12.253906 -8.734375 11.265625 -7.796875 C 10.929688 -7.492188 10.554688 -7.226562 10.140625 -7 L 12.578125 -1.859375 C 13.054688 -0.804688 13.421875 -0.175781 13.671875 0.03125 L 13.609375 0.078125 C 12.835938 -0.046875 11.625 -0.0390625 9.96875 0.09375 Z M 6.390625 -13.375 C 5.984375 -13.375 5.59375 -13.351562 5.21875 -13.3125 L 5.21875 -8.75 C 5.613281 -8.695312 6.070312 -8.671875 6.59375 -8.671875 C 7.125 -8.671875 7.566406 -8.710938 7.921875 -8.796875 C 8.285156 -8.890625 8.597656 -9.035156 8.859375 -9.234375 C 9.421875 -9.648438 9.703125 -10.28125 9.703125 -11.125 C 9.703125 -11.96875 9.410156 -12.5625 8.828125 -12.90625 C 8.273438 -13.21875 7.460938 -13.375 6.390625 -13.375 Z M 6.390625 -13.375 "/></g></g></g><g fill="#e1b66e" fill-opacity="1"><g transform="translate(114.324811, 262.475637)"><g><path d="M 10.046875 -2.875 C 10.546875 -2.875 10.890625 -2.921875 11.078125 -3.015625 L 11.125 -3 L 11.015625 0 L 2.0625 0 L 2.0625 -15.984375 C 2.269531 -15.960938 2.507812 -15.953125 2.78125 -15.953125 L 3.609375 -15.921875 C 4.171875 -15.910156 4.773438 -15.90625 5.421875 -15.90625 C 7.253906 -15.90625 9.0625 -15.9375 10.84375 -16 C 10.757812 -15.289062 10.71875 -14.351562 10.71875 -13.1875 C 10.71875 -13.0625 10.722656 -12.96875 10.734375 -12.90625 L 10.71875 -12.859375 C 10.300781 -12.984375 9.707031 -13.046875 8.9375 -13.046875 L 5.171875 -13.046875 L 5.171875 -10 L 8.015625 -10 C 8.890625 -10 9.414062 -10.019531 9.59375 -10.0625 L 9.625 -7.109375 C 9.238281 -7.148438 8.742188 -7.171875 8.140625 -7.171875 L 5.171875 -7.171875 L 5.171875 -2.875 Z M 10.046875 -2.875 "/></g></g></g><g fill="#e1b66e" fill-opacity="1"><g transform="translate(129.863792, 262.475637)"><g><path d="M 2.15625 0 C 2.207031 -0.269531 2.234375 -0.566406 2.234375 -0.890625 L 2.234375 -15.90625 L 4.625 -15.90625 L 10.96875 -5.9375 L 10.96875 -15.09375 C 10.96875 -15.53125 10.925781 -15.800781 10.84375 -15.90625 L 14.078125 -15.90625 C 14.035156 -15.582031 14.015625 -15.226562 14.015625 -14.84375 L 14.015625 0 L 11.53125 0 L 5.28125 -9.578125 L 5.28125 0 Z M 2.15625 0 "/></g></g></g><g fill="#e1b66e" fill-opacity="1"><g transform="translate(149.381335, 262.475637)"><g><path d="M 3.21875 0.09375 C 2.53125 0.03125 1.726562 0 0.8125 0 L -0.125 0 L 5.0625 -14.578125 C 5.300781 -15.222656 5.421875 -15.597656 5.421875 -15.703125 C 5.421875 -15.816406 5.414062 -15.882812 5.40625 -15.90625 L 5.421875 -15.9375 C 5.929688 -15.914062 6.476562 -15.90625 7.0625 -15.90625 C 7.539062 -15.90625 8.113281 -15.910156 8.78125 -15.921875 L 8.796875 -15.90625 C 8.785156 -15.875 8.78125 -15.828125 8.78125 -15.765625 C 8.78125 -15.617188 8.898438 -15.21875 9.140625 -14.5625 L 14.4375 0.03125 C 14.28125 0.03125 14.09375 0.03125 13.875 0.03125 C 13.875 0.03125 13.671875 0.0195312 13.265625 0 C 13.054688 0 12.875 0 12.71875 0 L 10.875 0 L 9.75 -3.4375 L 4.34375 -3.4375 Z M 8.8125 -6.3125 L 7 -11.875 L 5.25 -6.3125 Z M 8.8125 -6.3125 "/></g></g></g><g fill="#e1b66e" fill-opacity="1"><g transform="translate(166.963361, 262.475637)"><g/></g></g><g fill="#e1b66e" fill-opacity="1"><g transform="translate(178.356514, 262.475637)"><g><path d="M 3.21875 0.09375 C 2.53125 0.03125 1.726562 0 0.8125 0 L -0.125 0 L 5.0625 -14.578125 C 5.300781 -15.222656 5.421875 -15.597656 5.421875 -15.703125 C 5.421875 -15.816406 5.414062 -15.882812 5.40625 -15.90625 L 5.421875 -15.9375 C 5.929688 -15.914062 6.476562 -15.90625 7.0625 -15.90625 C 7.539062 -15.90625 8.113281 -15.910156 8.78125 -15.921875 L 8.796875 -15.90625 C 8.785156 -15.875 8.78125 -15.828125 8.78125 -15.765625 C 8.78125 -15.617188 8.898438 -15.21875 9.140625 -14.5625 L 14.4375 0.03125 C 14.28125 0.03125 14.09375 0.03125 13.875 0.03125 C 13.875 0.03125 13.671875 0.0195312 13.265625 0 C 13.054688 0 12.875 0 12.71875 0 L 10.875 0 L 9.75 -3.4375 L 4.34375 -3.4375 Z M 8.8125 -6.3125 L 7 -11.875 L 5.25 -6.3125 Z M 8.8125 -6.3125 "/></g></g></g><g fill="#e1b66e" fill-opacity="1"><g transform="translate(195.93854, 262.475637)"><g><path d="M 2.15625 0 C 2.207031 -0.269531 2.234375 -0.566406 2.234375 -0.890625 L 2.234375 -15.90625 L 4.625 -15.90625 L 10.96875 -5.9375 L 10.96875 -15.09375 C 10.96875 -15.53125 10.925781 -15.800781 10.84375 -15.90625 L 14.078125 -15.90625 C 14.035156 -15.582031 14.015625 -15.226562 14.015625 -14.84375 L 14.015625 0 L 11.53125 0 L 5.28125 -9.578125 L 5.28125 0 Z M 2.15625 0 "/></g></g></g><g fill="#e1b66e" fill-opacity="1"><g transform="translate(215.456083, 262.475637)"><g><path d="M 7.796875 0.078125 C 7.410156 0.0234375 6.425781 0 4.84375 0 L 4.453125 0 L 4.453125 -13.21875 L 2.09375 -13.21875 C 1.394531 -13.21875 0.976562 -13.179688 0.84375 -13.109375 C 0.71875 -13.035156 0.617188 -12.972656 0.546875 -12.921875 L 0.515625 -12.9375 L 0.515625 -16 L 0.546875 -16.03125 C 0.804688 -15.945312 1.515625 -15.90625 2.671875 -15.90625 L 10.171875 -15.90625 C 10.867188 -15.90625 11.28125 -15.9375 11.40625 -16 C 11.539062 -16.070312 11.644531 -16.140625 11.71875 -16.203125 L 11.75 -16.1875 L 11.75 -13.125 L 11.71875 -13.09375 C 11.457031 -13.175781 10.75 -13.21875 9.59375 -13.21875 L 7.796875 -13.21875 Z M 7.796875 0.078125 "/></g></g></g><g fill="#e1b66e" fill-opacity="1"><g transform="translate(230.995064, 262.475637)"><g><path d="M 3.359375 -1.875 C 2.628906 -2.570312 2.054688 -3.40625 1.640625 -4.375 C 1.222656 -5.351562 1.015625 -6.421875 1.015625 -7.578125 C 1.015625 -8.742188 1.207031 -9.84375 1.59375 -10.875 C 1.988281 -11.914062 2.546875 -12.828125 3.265625 -13.609375 C 3.992188 -14.398438 4.875 -15.03125 5.90625 -15.5 C 6.9375 -15.96875 8.085938 -16.203125 9.359375 -16.203125 C 11.554688 -16.203125 13.410156 -15.507812 14.921875 -14.125 C 16.523438 -12.632812 17.328125 -10.632812 17.328125 -8.125 C 17.328125 -5.675781 16.5 -3.644531 14.84375 -2.03125 C 13.820312 -1.03125 12.609375 -0.34375 11.203125 0.03125 C 10.503906 0.207031 9.691406 0.296875 8.765625 0.296875 C 7.835938 0.296875 6.882812 0.109375 5.90625 -0.265625 C 4.9375 -0.648438 4.085938 -1.1875 3.359375 -1.875 Z M 4.34375 -7.75 C 4.34375 -7.007812 4.460938 -6.328125 4.703125 -5.703125 C 4.953125 -5.078125 5.296875 -4.539062 5.734375 -4.09375 C 6.671875 -3.15625 7.875 -2.6875 9.34375 -2.6875 C 10.726562 -2.6875 11.847656 -3.140625 12.703125 -4.046875 C 13.554688 -4.972656 13.984375 -6.242188 13.984375 -7.859375 C 13.984375 -9.367188 13.570312 -10.628906 12.75 -11.640625 C 11.863281 -12.722656 10.65625 -13.265625 9.125 -13.265625 C 7.632812 -13.265625 6.453125 -12.71875 5.578125 -11.625 C 4.753906 -10.59375 4.34375 -9.300781 4.34375 -7.75 Z M 4.34375 -7.75 "/></g></g></g><g fill="#e1b66e" fill-opacity="1"><g transform="translate(252.61539, 262.475637)"><g><path d="M 2.15625 0 C 2.207031 -0.269531 2.234375 -0.566406 2.234375 -0.890625 L 2.234375 -15.90625 L 4.625 -15.90625 L 10.96875 -5.9375 L 10.96875 -15.09375 C 10.96875 -15.53125 10.925781 -15.800781 10.84375 -15.90625 L 14.078125 -15.90625 C 14.035156 -15.582031 14.015625 -15.226562 14.015625 -14.84375 L 14.015625 0 L 11.53125 0 L 5.28125 -9.578125 L 5.28125 0 Z M 2.15625 0 "/></g></g></g><g fill="#e1b66e" fill-opacity="1"><g transform="translate(272.132933, 262.475637)"><g><path d="M 2.421875 -15.953125 C 3.222656 -15.921875 3.707031 -15.90625 3.875 -15.90625 L 4.734375 -15.90625 C 5.160156 -15.90625 5.5 -15.9375 5.75 -16 L 5.734375 0 L 2.421875 0 Z M 2.421875 -15.953125 "/></g></g></g><g fill="#e1b66e" fill-opacity="1"><g transform="translate(283.585813, 262.475637)"><g><path d="M 2.15625 0 C 2.207031 -0.269531 2.234375 -0.566406 2.234375 -0.890625 L 2.234375 -15.90625 L 4.625 -15.90625 L 10.96875 -5.9375 L 10.96875 -15.09375 C 10.96875 -15.53125 10.925781 -15.800781 10.84375 -15.90625 L 14.078125 -15.90625 C 14.035156 -15.582031 14.015625 -15.226562 14.015625 -14.84375 L 14.015625 0 L 11.53125 0 L 5.28125 -9.578125 L 5.28125 0 Z M 2.15625 0 "/></g></g></g><g fill="#e1b66e" fill-opacity="1"><g transform="translate(303.103367, 262.475637)"><g><path d="M 2.421875 -15.953125 C 3.222656 -15.921875 3.707031 -15.90625 3.875 -15.90625 L 4.734375 -15.90625 C 5.160156 -15.90625 5.5 -15.9375 5.75 -16 L 5.734375 0 L 2.421875 0 Z M 2.421875 -15.953125 "/></g></g></g><g fill="#ffffff" fill-opacity="1"><g transform="translate(130.172392, 283.191075)"><g><path d="M 3.515625 0.171875 C 2.742188 0.171875 2.019531 0.113281 1.34375 0 L 1.34375 -9.46875 C 1.96875 -9.539062 2.691406 -9.578125 3.515625 -9.578125 C 4.335938 -9.578125 5.082031 -9.460938 5.75 -9.234375 C 6.414062 -9.015625 6.972656 -8.695312 7.421875 -8.28125 C 8.328125 -7.457031 8.78125 -6.296875 8.78125 -4.796875 C 8.78125 -3.128906 8.273438 -1.859375 7.265625 -0.984375 C 6.359375 -0.210938 5.109375 0.171875 3.515625 0.171875 Z M 3.1875 -1.546875 C 3.5 -1.492188 3.804688 -1.46875 4.109375 -1.46875 C 4.410156 -1.46875 4.738281 -1.523438 5.09375 -1.640625 C 5.445312 -1.765625 5.753906 -1.953125 6.015625 -2.203125 C 6.578125 -2.742188 6.859375 -3.523438 6.859375 -4.546875 C 6.859375 -6.242188 6.238281 -7.285156 5 -7.671875 C 4.601562 -7.796875 4.132812 -7.859375 3.59375 -7.859375 L 3.40625 -7.859375 C 3.332031 -7.859375 3.257812 -7.851562 3.1875 -7.84375 Z M 3.1875 -1.546875 "/></g></g></g><g fill="#ffffff" fill-opacity="1"><g transform="translate(140.463148, 283.191075)"><g><path d="M 1.4375 -9.4375 C 1.90625 -9.414062 2.191406 -9.40625 2.296875 -9.40625 L 2.796875 -9.40625 C 3.046875 -9.40625 3.25 -9.425781 3.40625 -9.46875 L 3.390625 0 L 1.4375 0 Z M 1.4375 -9.4375 "/></g></g></g><g fill="#ffffff" fill-opacity="1"><g transform="translate(145.948529, 283.191075)"><g><path d="M 8.96875 -5.671875 C 8.875 -5.515625 8.828125 -5.128906 8.828125 -4.515625 L 8.828125 -2.328125 C 8.828125 -1.660156 8.484375 -1.082031 7.796875 -0.59375 C 7.085938 -0.0820312 6.21875 0.171875 5.1875 0.171875 C 3.75 0.171875 2.601562 -0.273438 1.75 -1.171875 C 0.925781 -2.035156 0.515625 -3.128906 0.515625 -4.453125 C 0.515625 -5.867188 0.9375 -7.046875 1.78125 -7.984375 C 2.71875 -9.046875 4.007812 -9.578125 5.65625 -9.578125 C 6.75 -9.578125 7.617188 -9.367188 8.265625 -8.953125 L 8.140625 -6.859375 L 8.09375 -6.84375 C 7.925781 -7.132812 7.597656 -7.367188 7.109375 -7.546875 C 6.648438 -7.722656 6.164062 -7.8125 5.65625 -7.8125 C 5.15625 -7.8125 4.710938 -7.726562 4.328125 -7.5625 C 3.953125 -7.40625 3.628906 -7.179688 3.359375 -6.890625 C 2.804688 -6.273438 2.53125 -5.472656 2.53125 -4.484375 C 2.53125 -3.609375 2.773438 -2.90625 3.265625 -2.375 C 3.753906 -1.851562 4.382812 -1.59375 5.15625 -1.59375 C 6.007812 -1.59375 6.585938 -1.8125 6.890625 -2.25 C 6.984375 -2.394531 7.03125 -2.554688 7.03125 -2.734375 L 7.03125 -3.90625 L 6.125 -3.90625 C 5.625 -3.90625 5.351562 -3.863281 5.3125 -3.78125 L 5.296875 -3.796875 L 5.234375 -5.640625 C 5.367188 -5.597656 5.90625 -5.578125 6.84375 -5.578125 L 7.671875 -5.578125 C 8.191406 -5.578125 8.617188 -5.613281 8.953125 -5.6875 Z M 8.96875 -5.671875 "/></g></g></g><g fill="#ffffff" fill-opacity="1"><g transform="translate(156.239285, 283.191075)"><g><path d="M 1.4375 -9.4375 C 1.90625 -9.414062 2.191406 -9.40625 2.296875 -9.40625 L 2.796875 -9.40625 C 3.046875 -9.40625 3.25 -9.425781 3.40625 -9.46875 L 3.390625 0 L 1.4375 0 Z M 1.4375 -9.4375 "/></g></g></g><g fill="#ffffff" fill-opacity="1"><g transform="translate(161.724667, 283.191075)"><g><path d="M 4.609375 0.046875 C 4.378906 0.015625 3.796875 0 2.859375 0 L 2.640625 0 L 2.640625 -7.828125 L 1.234375 -7.828125 C 0.816406 -7.828125 0.570312 -7.800781 0.5 -7.75 C 0.425781 -7.707031 0.367188 -7.671875 0.328125 -7.640625 L 0.296875 -7.65625 L 0.296875 -9.46875 L 0.328125 -9.484375 C 0.484375 -9.429688 0.898438 -9.40625 1.578125 -9.40625 L 6.015625 -9.40625 C 6.429688 -9.40625 6.675781 -9.425781 6.75 -9.46875 C 6.832031 -9.507812 6.894531 -9.546875 6.9375 -9.578125 L 6.953125 -9.578125 L 6.953125 -7.765625 L 6.9375 -7.75 C 6.78125 -7.800781 6.359375 -7.828125 5.671875 -7.828125 L 4.609375 -7.828125 Z M 4.609375 0.046875 "/></g></g></g><g fill="#ffffff" fill-opacity="1"><g transform="translate(169.626869, 283.191075)"><g><path d="M 1.90625 0.0625 C 1.5 0.0195312 1.023438 0 0.484375 0 L -0.078125 0 L 3 -8.625 C 3.132812 -9.007812 3.203125 -9.234375 3.203125 -9.296875 C 3.203125 -9.359375 3.203125 -9.394531 3.203125 -9.40625 L 3.203125 -9.421875 C 3.503906 -9.410156 3.832031 -9.40625 4.1875 -9.40625 C 4.46875 -9.40625 4.804688 -9.410156 5.203125 -9.421875 L 5.203125 -9.40625 C 5.191406 -9.382812 5.1875 -9.359375 5.1875 -9.328125 C 5.1875 -9.234375 5.257812 -8.992188 5.40625 -8.609375 L 8.546875 0.015625 C 8.453125 0.015625 8.34375 0.015625 8.21875 0.015625 C 8.21875 0.015625 8.09375 0.0078125 7.84375 0 C 7.726562 0 7.625 0 7.53125 0 L 6.421875 0 L 5.765625 -2.03125 L 2.5625 -2.03125 Z M 5.21875 -3.734375 L 4.140625 -7.015625 L 3.109375 -3.734375 Z M 5.21875 -3.734375 "/></g></g></g><g fill="#ffffff" fill-opacity="1"><g transform="translate(178.737487, 283.191075)"><g><path d="M 2.59375 0 C 1.90625 0 1.445312 0.015625 1.21875 0.046875 L 1.21875 -9.453125 C 1.332031 -9.421875 1.566406 -9.40625 1.921875 -9.40625 C 2.273438 -9.40625 2.6875 -9.414062 3.15625 -9.4375 L 3.15625 -1.703125 L 4.625 -1.703125 C 5.050781 -1.703125 5.390625 -1.710938 5.640625 -1.734375 C 5.609375 -0.628906 5.59375 -0.0546875 5.59375 -0.015625 L 5.59375 0.046875 C 5.132812 0.015625 4.359375 0 3.265625 0 Z M 2.59375 0 "/></g></g></g><g fill="#ffffff" fill-opacity="1"><g transform="translate(185.431284, 283.191075)"><g/></g></g><g fill="#ffffff" fill-opacity="1"><g transform="translate(190.881338, 283.191075)"><g><path d="M 6.890625 -8.890625 L 6.765625 -6.796875 L 6.71875 -6.796875 C 6.363281 -7.316406 5.765625 -7.65625 4.921875 -7.8125 C 4.660156 -7.863281 4.410156 -7.890625 4.171875 -7.890625 C 3.929688 -7.890625 3.722656 -7.867188 3.546875 -7.828125 C 3.367188 -7.785156 3.222656 -7.722656 3.109375 -7.640625 C 2.847656 -7.472656 2.71875 -7.25 2.71875 -6.96875 C 2.71875 -6.613281 2.832031 -6.347656 3.0625 -6.171875 C 3.34375 -5.953125 3.8125 -5.796875 4.46875 -5.703125 C 5.125 -5.617188 5.648438 -5.5 6.046875 -5.34375 C 6.441406 -5.195312 6.765625 -5.007812 7.015625 -4.78125 C 7.492188 -4.34375 7.734375 -3.726562 7.734375 -2.9375 C 7.734375 -1.90625 7.34375 -1.109375 6.5625 -0.546875 C 5.894531 -0.0664062 5.050781 0.171875 4.03125 0.171875 C 3.207031 0.171875 2.394531 0.015625 1.59375 -0.296875 C 1.332031 -0.398438 1.101562 -0.519531 0.90625 -0.65625 L 0.984375 -3.015625 L 1.015625 -3.03125 C 1.597656 -2.019531 2.554688 -1.515625 3.890625 -1.515625 C 4.835938 -1.515625 5.460938 -1.742188 5.765625 -2.203125 C 5.867188 -2.359375 5.921875 -2.53125 5.921875 -2.71875 C 5.921875 -2.914062 5.890625 -3.078125 5.828125 -3.203125 C 5.773438 -3.328125 5.675781 -3.429688 5.53125 -3.515625 C 5.257812 -3.703125 4.800781 -3.820312 4.15625 -3.875 C 3.507812 -3.9375 2.976562 -4.050781 2.5625 -4.21875 C 2.15625 -4.394531 1.828125 -4.609375 1.578125 -4.859375 C 1.140625 -5.304688 0.921875 -5.9375 0.921875 -6.75 C 0.921875 -7.59375 1.210938 -8.273438 1.796875 -8.796875 C 2.398438 -9.316406 3.207031 -9.578125 4.21875 -9.578125 C 5.238281 -9.578125 6.128906 -9.347656 6.890625 -8.890625 Z M 6.890625 -8.890625 "/></g></g></g><g fill="#ffffff" fill-opacity="1"><g transform="translate(199.963689, 283.191075)"><g><path d="M 4.609375 0.046875 C 4.378906 0.015625 3.796875 0 2.859375 0 L 2.640625 0 L 2.640625 -7.828125 L 1.234375 -7.828125 C 0.816406 -7.828125 0.570312 -7.800781 0.5 -7.75 C 0.425781 -7.707031 0.367188 -7.671875 0.328125 -7.640625 L 0.296875 -7.65625 L 0.296875 -9.46875 L 0.328125 -9.484375 C 0.484375 -9.429688 0.898438 -9.40625 1.578125 -9.40625 L 6.015625 -9.40625 C 6.429688 -9.40625 6.675781 -9.425781 6.75 -9.46875 C 6.832031 -9.507812 6.894531 -9.546875 6.9375 -9.578125 L 6.953125 -9.578125 L 6.953125 -7.765625 L 6.9375 -7.75 C 6.78125 -7.800781 6.359375 -7.828125 5.671875 -7.828125 L 4.609375 -7.828125 Z M 4.609375 0.046875 "/></g></g></g><g fill="#ffffff" fill-opacity="1"><g transform="translate(207.865891, 283.191075)"><g><path d="M 6.578125 -9.4375 C 6.867188 -9.414062 7.113281 -9.40625 7.3125 -9.40625 L 7.890625 -9.40625 C 8.085938 -9.40625 8.296875 -9.425781 8.515625 -9.46875 L 8.515625 -3.609375 C 8.515625 -2.453125 8.164062 -1.523438 7.46875 -0.828125 C 6.800781 -0.160156 5.960938 0.171875 4.953125 0.171875 C 3.859375 0.171875 2.972656 -0.109375 2.296875 -0.671875 C 1.535156 -1.316406 1.15625 -2.242188 1.15625 -3.453125 L 1.15625 -9.4375 C 1.539062 -9.414062 1.90625 -9.40625 2.25 -9.40625 C 2.601562 -9.40625 2.894531 -9.425781 3.125 -9.46875 L 3.125 -3.359375 C 3.125 -2.765625 3.300781 -2.300781 3.65625 -1.96875 C 4 -1.664062 4.425781 -1.515625 4.9375 -1.515625 C 5.6875 -1.515625 6.1875 -1.90625 6.4375 -2.6875 C 6.53125 -2.957031 6.578125 -3.300781 6.578125 -3.71875 Z M 6.578125 -9.4375 "/></g></g></g><g fill="#ffffff" fill-opacity="1"><g transform="translate(218.184914, 283.191075)"><g><path d="M 3.515625 0.171875 C 2.742188 0.171875 2.019531 0.113281 1.34375 0 L 1.34375 -9.46875 C 1.96875 -9.539062 2.691406 -9.578125 3.515625 -9.578125 C 4.335938 -9.578125 5.082031 -9.460938 5.75 -9.234375 C 6.414062 -9.015625 6.972656 -8.695312 7.421875 -8.28125 C 8.328125 -7.457031 8.78125 -6.296875 8.78125 -4.796875 C 8.78125 -3.128906 8.273438 -1.859375 7.265625 -0.984375 C 6.359375 -0.210938 5.109375 0.171875 3.515625 0.171875 Z M 3.1875 -1.546875 C 3.5 -1.492188 3.804688 -1.46875 4.109375 -1.46875 C 4.410156 -1.46875 4.738281 -1.523438 5.09375 -1.640625 C 5.445312 -1.765625 5.753906 -1.953125 6.015625 -2.203125 C 6.578125 -2.742188 6.859375 -3.523438 6.859375 -4.546875 C 6.859375 -6.242188 6.238281 -7.285156 5 -7.671875 C 4.601562 -7.796875 4.132812 -7.859375 3.59375 -7.859375 L 3.40625 -7.859375 C 3.332031 -7.859375 3.257812 -7.851562 3.1875 -7.84375 Z M 3.1875 -1.546875 "/></g></g></g><g fill="#ffffff" fill-opacity="1"><g transform="translate(228.475669, 283.191075)"><g><path d="M 1.4375 -9.4375 C 1.90625 -9.414062 2.191406 -9.40625 2.296875 -9.40625 L 2.796875 -9.40625 C 3.046875 -9.40625 3.25 -9.425781 3.40625 -9.46875 L 3.390625 0 L 1.4375 0 Z M 1.4375 -9.4375 "/></g></g></g><g fill="#ffffff" fill-opacity="1"><g transform="translate(233.961051, 283.191075)"><g><path d="M 1.984375 -1.109375 C 1.554688 -1.523438 1.21875 -2.019531 0.96875 -2.59375 C 0.71875 -3.164062 0.59375 -3.796875 0.59375 -4.484375 C 0.59375 -5.171875 0.707031 -5.820312 0.9375 -6.4375 C 1.175781 -7.050781 1.507812 -7.585938 1.9375 -8.046875 C 2.363281 -8.515625 2.878906 -8.882812 3.484375 -9.15625 C 4.097656 -9.4375 4.78125 -9.578125 5.53125 -9.578125 C 6.832031 -9.578125 7.929688 -9.171875 8.828125 -8.359375 C 9.773438 -7.472656 10.25 -6.285156 10.25 -4.796875 C 10.25 -3.359375 9.757812 -2.160156 8.78125 -1.203125 C 8.175781 -0.609375 7.457031 -0.203125 6.625 0.015625 C 6.21875 0.117188 5.738281 0.171875 5.1875 0.171875 C 4.632812 0.171875 4.066406 0.0625 3.484375 -0.15625 C 2.910156 -0.382812 2.410156 -0.703125 1.984375 -1.109375 Z M 2.5625 -4.578125 C 2.5625 -4.140625 2.632812 -3.738281 2.78125 -3.375 C 2.925781 -3.007812 3.128906 -2.691406 3.390625 -2.421875 C 3.941406 -1.867188 4.65625 -1.59375 5.53125 -1.59375 C 6.351562 -1.59375 7.015625 -1.859375 7.515625 -2.390625 C 8.023438 -2.941406 8.28125 -3.691406 8.28125 -4.640625 C 8.28125 -5.535156 8.035156 -6.285156 7.546875 -6.890625 C 7.023438 -7.523438 6.304688 -7.84375 5.390625 -7.84375 C 4.515625 -7.84375 3.816406 -7.519531 3.296875 -6.875 C 2.804688 -6.269531 2.5625 -5.503906 2.5625 -4.578125 Z M 2.5625 -4.578125 "/></g></g></g></svg>