<svg xmlns="http://www.w3.org/2000/svg" xmlns:xlink="http://www.w3.org/1999/xlink" width="300" zoomAndPan="magnify" viewBox="0 0 224.87999 299.999988" height="400" preserveAspectRatio="xMidYMid meet" version="1.0"><defs><clipPath id="25e7682e8a"><path d="M 11 44.726562 L 224.761719 44.726562 L 224.761719 252 L 11 252 Z M 11 44.726562 " clip-rule="nonzero"/></clipPath></defs><g clip-path="url(#25e7682e8a)"><path fill="#000000" d="M 77.644531 44.660156 C 76.125 45.289062 74.625 45.957031 73.136719 46.65625 C 71.648438 47.355469 70.179688 48.089844 68.726562 48.855469 C 67.273438 49.625 65.835938 50.421875 64.417969 51.257812 C 63.003906 52.089844 61.605469 52.953125 60.226562 53.851562 C 58.851562 54.75 57.496094 55.675781 56.160156 56.636719 C 54.824219 57.59375 53.511719 58.582031 52.222656 59.601562 C 50.933594 60.621094 49.667969 61.671875 48.425781 62.746094 C 47.183594 63.824219 45.96875 64.929688 44.777344 66.0625 C 43.585938 67.195312 42.421875 68.355469 41.285156 69.542969 C 40.144531 70.730469 39.035156 71.941406 37.953125 73.175781 C 36.871094 74.414062 35.816406 75.675781 34.792969 76.960938 C 33.769531 78.246094 32.773438 79.554688 31.808594 80.886719 C 30.84375 82.21875 29.910156 83.570312 29.007812 84.945312 C 28.105469 86.320312 27.234375 87.710938 26.394531 89.125 C 25.554688 90.539062 24.75 91.972656 23.976562 93.421875 C 23.203125 94.875 22.464844 96.34375 21.757812 97.828125 C 21.050781 99.3125 20.378906 100.8125 19.742188 102.328125 C 19.105469 103.84375 18.5 105.371094 17.933594 106.914062 C 17.367188 108.457031 16.835938 110.015625 16.339844 111.582031 C 15.84375 113.148438 15.382812 114.726562 14.957031 116.316406 C 14.535156 117.902344 14.148438 119.5 13.796875 121.109375 C 13.445312 122.714844 13.132812 124.328125 12.855469 125.949219 C 12.578125 127.570312 12.339844 129.195312 12.136719 130.828125 C 11.933594 132.460938 11.769531 134.09375 11.640625 135.734375 C 11.515625 137.371094 11.425781 139.015625 11.371094 140.65625 C 11.320312 142.300781 11.304688 143.945312 11.328125 145.589844 C 11.351562 147.234375 11.410156 148.875 11.507812 150.515625 C 11.609375 152.160156 11.742188 153.796875 11.917969 155.433594 C 12.089844 157.066406 12.300781 158.695312 12.546875 160.324219 C 12.796875 161.949219 13.082031 163.566406 13.402344 165.179688 C 13.726562 166.792969 14.082031 168.394531 14.480469 169.992188 C 14.875 171.585938 15.304688 173.171875 15.773438 174.75 C 16.277344 176.4375 16.820312 178.113281 17.40625 179.773438 C 17.992188 181.4375 18.621094 183.082031 19.285156 184.714844 C 19.953125 186.34375 20.660156 187.960938 21.402344 189.554688 C 22.148438 191.152344 22.933594 192.730469 23.757812 194.285156 C 24.582031 195.84375 25.441406 197.382812 26.339844 198.898438 C 27.238281 200.414062 28.171875 201.90625 29.144531 203.375 C 30.117188 204.84375 31.125 206.289062 32.167969 207.710938 C 33.210938 209.128906 34.285156 210.523438 35.398438 211.890625 C 36.507812 213.257812 37.652344 214.597656 38.828125 215.90625 C 40.003906 217.21875 41.214844 218.5 42.453125 219.753906 C 43.691406 221.003906 44.964844 222.226562 46.261719 223.414062 C 47.5625 224.601562 48.890625 225.757812 50.246094 226.882812 C 51.601562 228.007812 52.984375 229.097656 54.394531 230.15625 C 55.804688 231.210938 57.242188 232.230469 58.699219 233.21875 C 60.160156 234.203125 61.644531 235.152344 63.148438 236.066406 C 64.65625 236.976562 66.183594 237.851562 67.734375 238.691406 C 69.285156 239.527344 70.851562 240.328125 72.441406 241.089844 C 74.03125 241.851562 75.636719 242.570312 77.261719 243.253906 C 78.882812 243.933594 80.523438 244.574219 82.179688 245.175781 C 83.835938 245.777344 85.503906 246.339844 87.1875 246.859375 C 88.871094 247.378906 90.566406 247.855469 92.273438 248.292969 C 93.980469 248.726562 95.695312 249.121094 97.421875 249.472656 C 99.148438 249.824219 100.878906 250.132812 102.621094 250.398438 C 104.363281 250.667969 106.109375 250.890625 107.859375 251.070312 C 109.613281 251.25 111.367188 251.390625 113.125 251.484375 C 114.886719 251.578125 116.644531 251.628906 118.40625 251.636719 C 120.167969 251.644531 121.929688 251.609375 123.6875 251.53125 C 125.449219 251.453125 127.203125 251.332031 128.957031 251.167969 C 130.710938 251.003906 132.460938 250.796875 134.203125 250.546875 C 135.945312 250.296875 137.683594 250 139.410156 249.664062 C 141.140625 249.328125 142.859375 248.953125 144.570312 248.53125 C 146.28125 248.113281 147.980469 247.648438 149.667969 247.144531 C 152.035156 246.433594 154.378906 245.644531 156.691406 244.773438 C 159.003906 243.902344 161.285156 242.953125 163.535156 241.921875 C 165.785156 240.894531 167.992188 239.789062 170.167969 238.609375 C 172.339844 237.425781 174.46875 236.171875 176.554688 234.84375 C 178.640625 233.515625 180.675781 232.117188 182.667969 230.648438 C 184.65625 229.179688 186.59375 227.644531 188.476562 226.042969 C 190.359375 224.441406 192.1875 222.777344 193.957031 221.046875 C 195.726562 219.320312 197.433594 217.535156 199.078125 215.6875 C 200.722656 213.84375 202.304688 211.941406 203.820312 209.988281 C 205.335938 208.03125 206.78125 206.027344 208.160156 203.972656 C 209.535156 201.917969 210.839844 199.820312 212.074219 197.675781 C 213.304688 195.53125 214.460938 193.347656 215.542969 191.125 C 216.625 188.898438 217.628906 186.640625 218.554688 184.347656 C 219.480469 182.054688 220.328125 179.730469 221.09375 177.378906 C 221.859375 175.027344 222.546875 172.652344 223.148438 170.253906 C 223.75 167.855469 224.269531 165.4375 224.707031 163.003906 C 223.234375 165.921875 221.617188 168.761719 219.855469 171.519531 C 218.09375 174.273438 216.199219 176.933594 214.167969 179.496094 C 212.136719 182.058594 209.980469 184.511719 207.699219 186.859375 C 205.421875 189.203125 203.027344 191.425781 200.519531 193.527344 C 198.015625 195.625 195.410156 197.59375 192.703125 199.433594 C 189.996094 201.269531 187.207031 202.960938 184.328125 204.515625 C 181.449219 206.066406 178.5 207.46875 175.480469 208.722656 C 172.460938 209.976562 169.386719 211.074219 166.253906 212.011719 C 164.738281 212.464844 163.214844 212.878906 161.679688 213.257812 C 160.144531 213.632812 158.601562 213.972656 157.050781 214.273438 C 155.5 214.574219 153.941406 214.839844 152.378906 215.0625 C 150.8125 215.289062 149.242188 215.472656 147.671875 215.621094 C 146.097656 215.769531 144.519531 215.878906 142.941406 215.949219 C 141.363281 216.019531 139.785156 216.050781 138.203125 216.042969 C 136.625 216.035156 135.042969 215.988281 133.464844 215.90625 C 131.886719 215.820312 130.3125 215.695312 128.742188 215.535156 C 127.167969 215.371094 125.601562 215.171875 124.039062 214.933594 C 122.476562 214.691406 120.921875 214.414062 119.375 214.101562 C 117.824219 213.785156 116.285156 213.429688 114.753906 213.039062 C 113.222656 212.648438 111.703125 212.21875 110.191406 211.753906 C 108.679688 211.289062 107.183594 210.785156 105.699219 210.246094 C 104.210938 209.707031 102.742188 209.132812 101.285156 208.519531 C 99.828125 207.90625 98.386719 207.261719 96.960938 206.578125 C 95.535156 205.894531 94.125 205.179688 92.734375 204.425781 C 91.34375 203.675781 89.976562 202.890625 88.621094 202.070312 C 87.269531 201.25 85.941406 200.398438 84.628906 199.515625 C 83.320312 198.628906 82.03125 197.714844 80.769531 196.765625 C 79.503906 195.820312 78.261719 194.839844 77.042969 193.832031 C 75.828125 192.824219 74.636719 191.785156 73.46875 190.71875 C 72.304688 189.652344 71.164062 188.554688 70.050781 187.433594 C 68.941406 186.308594 67.855469 185.160156 66.800781 183.984375 C 65.746094 182.808594 64.71875 181.605469 63.722656 180.378906 C 62.722656 179.152344 61.757812 177.902344 60.824219 176.628906 C 59.886719 175.351562 58.984375 174.058594 58.109375 172.738281 C 57.238281 171.417969 56.398438 170.078125 55.59375 168.71875 C 54.789062 167.359375 54.015625 165.980469 53.277344 164.582031 C 52.539062 163.1875 51.835938 161.769531 51.164062 160.339844 C 50.496094 158.90625 49.863281 157.457031 49.265625 155.996094 C 48.667969 154.53125 48.105469 153.054688 47.578125 151.5625 C 47.054688 150.070312 46.566406 148.570312 46.113281 147.054688 C 45.4375 144.785156 44.847656 142.492188 44.34375 140.179688 C 43.835938 137.867188 43.417969 135.542969 43.082031 133.199219 C 42.746094 130.855469 42.5 128.5 42.335938 126.140625 C 42.175781 123.777344 42.101562 121.414062 42.113281 119.046875 C 42.125 116.679688 42.222656 114.316406 42.40625 111.957031 C 42.59375 109.597656 42.863281 107.246094 43.222656 104.90625 C 43.582031 102.566406 44.023438 100.242188 44.550781 97.9375 C 45.082031 95.628906 45.695312 93.34375 46.390625 91.082031 C 47.085938 88.820312 47.867188 86.585938 48.726562 84.382812 C 49.585938 82.175781 50.527344 80.007812 51.546875 77.871094 C 52.566406 75.734375 53.664062 73.640625 54.839844 71.585938 C 56.015625 69.53125 57.261719 67.519531 58.582031 65.558594 C 59.90625 63.59375 61.296875 61.683594 62.757812 59.820312 C 64.222656 57.960938 65.75 56.15625 67.34375 54.40625 C 68.941406 52.65625 70.597656 50.96875 72.316406 49.34375 C 74.035156 47.71875 75.8125 46.15625 77.644531 44.660156 Z M 77.644531 44.660156 " fill-opacity="1" fill-rule="nonzero"/></g></svg>