<svg xmlns="http://www.w3.org/2000/svg" xmlns:xlink="http://www.w3.org/1999/xlink" width="500" zoomAndPan="magnify" viewBox="0 0 375 374.999991" height="500" preserveAspectRatio="xMidYMid meet" version="1.0"><defs><g/><clipPath id="b3bb774a88"><rect x="0" width="369" y="0" height="45"/></clipPath><clipPath id="3e12acd4b4"><rect x="0" width="170" y="0" height="28"/></clipPath></defs><g transform="matrix(1, 0, 0, 1, 5, 172)"><g clip-path="url(#b3bb774a88)"><g fill="#e1b66e" fill-opacity="1"><g transform="translate(1.626474, 31.030512)"><g><path d="M 17.03125 -21.9375 L 16.6875 -16.796875 L 16.578125 -16.765625 C 15.710938 -18.054688 14.242188 -18.894531 12.171875 -19.28125 C 11.515625 -19.40625 10.882812 -19.46875 10.28125 -19.46875 C 9.6875 -19.46875 9.175781 -19.414062 8.75 -19.3125 C 8.332031 -19.207031 7.972656 -19.054688 7.671875 -18.859375 C 7.023438 -18.441406 6.703125 -17.894531 6.703125 -17.21875 C 6.703125 -16.332031 6.984375 -15.671875 7.546875 -15.234375 C 8.242188 -14.691406 9.398438 -14.3125 11.015625 -14.09375 C 12.640625 -13.882812 13.9375 -13.59375 14.90625 -13.21875 C 15.882812 -12.84375 16.691406 -12.375 17.328125 -11.8125 C 18.515625 -10.738281 19.109375 -9.222656 19.109375 -7.265625 C 19.109375 -4.703125 18.140625 -2.726562 16.203125 -1.34375 C 14.546875 -0.15625 12.460938 0.4375 9.953125 0.4375 C 7.929688 0.4375 5.929688 0.0507812 3.953125 -0.71875 C 3.296875 -0.96875 2.722656 -1.265625 2.234375 -1.609375 L 2.421875 -7.4375 L 2.5 -7.484375 C 3.9375 -4.992188 6.304688 -3.75 9.609375 -3.75 C 11.941406 -3.75 13.488281 -4.316406 14.25 -5.453125 C 14.507812 -5.835938 14.640625 -6.265625 14.640625 -6.734375 C 14.640625 -7.203125 14.5625 -7.585938 14.40625 -7.890625 C 14.257812 -8.203125 14.007812 -8.472656 13.65625 -8.703125 C 12.976562 -9.140625 11.84375 -9.429688 10.25 -9.578125 C 8.65625 -9.734375 7.347656 -10.019531 6.328125 -10.4375 C 5.316406 -10.863281 4.507812 -11.382812 3.90625 -12 C 2.8125 -13.113281 2.265625 -14.671875 2.265625 -16.671875 C 2.265625 -18.742188 2.992188 -20.421875 4.453125 -21.703125 C 5.929688 -23.003906 7.925781 -23.65625 10.4375 -23.65625 C 12.945312 -23.65625 15.144531 -23.082031 17.03125 -21.9375 Z M 17.03125 -21.9375 "/></g></g></g><g fill="#e1b66e" fill-opacity="1"><g transform="translate(27.247831, 31.030512)"><g><path d="M 14.6875 -4.1875 C 15.40625 -4.1875 15.90625 -4.257812 16.1875 -4.40625 L 16.265625 -4.390625 L 16.078125 0 L 3 0 L 3 -23.34375 C 3.3125 -23.320312 3.660156 -23.304688 4.046875 -23.296875 L 5.28125 -23.265625 C 6.09375 -23.242188 6.972656 -23.234375 7.921875 -23.234375 C 10.585938 -23.234375 13.226562 -23.273438 15.84375 -23.359375 C 15.707031 -22.335938 15.640625 -20.972656 15.640625 -19.265625 C 15.640625 -19.078125 15.65625 -18.9375 15.6875 -18.84375 L 15.640625 -18.796875 C 15.035156 -18.960938 14.175781 -19.046875 13.0625 -19.046875 L 7.5625 -19.046875 L 7.5625 -14.59375 L 11.703125 -14.59375 C 12.984375 -14.59375 13.75 -14.628906 14 -14.703125 L 14.0625 -10.390625 C 13.5 -10.453125 12.773438 -10.484375 11.890625 -10.484375 L 7.5625 -10.484375 L 7.5625 -4.1875 Z M 14.6875 -4.1875 "/></g></g></g><g fill="#e1b66e" fill-opacity="1"><g transform="translate(49.953684, 31.030512)"><g><path d="M 10.515625 -9.03125 C 10.160156 -9.007812 9.785156 -9 9.390625 -9 C 8.992188 -9 8.40625 -9.023438 7.625 -9.078125 L 7.625 0 L 3 0 L 3 -23.34375 C 4.632812 -23.550781 6.640625 -23.65625 9.015625 -23.65625 C 12.242188 -23.65625 14.65625 -23.054688 16.25 -21.859375 C 17.84375 -20.671875 18.640625 -18.832031 18.640625 -16.34375 C 18.640625 -14.414062 17.910156 -12.765625 16.453125 -11.390625 C 15.972656 -10.941406 15.425781 -10.554688 14.8125 -10.234375 L 18.375 -2.71875 C 19.070312 -1.175781 19.609375 -0.257812 19.984375 0.03125 L 19.890625 0.125 C 18.765625 -0.0625 16.988281 -0.0546875 14.5625 0.140625 Z M 9.34375 -19.546875 C 8.75 -19.546875 8.175781 -19.515625 7.625 -19.453125 L 7.625 -12.78125 C 8.195312 -12.695312 8.867188 -12.65625 9.640625 -12.65625 C 10.410156 -12.65625 11.054688 -12.722656 11.578125 -12.859375 C 12.097656 -12.992188 12.550781 -13.203125 12.9375 -13.484375 C 13.769531 -14.097656 14.1875 -15.019531 14.1875 -16.25 C 14.1875 -17.488281 13.753906 -18.359375 12.890625 -18.859375 C 12.085938 -19.316406 10.90625 -19.546875 9.34375 -19.546875 Z M 9.34375 -19.546875 "/></g></g></g><g fill="#e1b66e" fill-opacity="1"><g transform="translate(75.575041, 31.030512)"><g><path d="M 14.6875 -4.1875 C 15.40625 -4.1875 15.90625 -4.257812 16.1875 -4.40625 L 16.265625 -4.390625 L 16.078125 0 L 3 0 L 3 -23.34375 C 3.3125 -23.320312 3.660156 -23.304688 4.046875 -23.296875 L 5.28125 -23.265625 C 6.09375 -23.242188 6.972656 -23.234375 7.921875 -23.234375 C 10.585938 -23.234375 13.226562 -23.273438 15.84375 -23.359375 C 15.707031 -22.335938 15.640625 -20.972656 15.640625 -19.265625 C 15.640625 -19.078125 15.65625 -18.9375 15.6875 -18.84375 L 15.640625 -18.796875 C 15.035156 -18.960938 14.175781 -19.046875 13.0625 -19.046875 L 7.5625 -19.046875 L 7.5625 -14.59375 L 11.703125 -14.59375 C 12.984375 -14.59375 13.75 -14.628906 14 -14.703125 L 14.0625 -10.390625 C 13.5 -10.453125 12.773438 -10.484375 11.890625 -10.484375 L 7.5625 -10.484375 L 7.5625 -4.1875 Z M 14.6875 -4.1875 "/></g></g></g><g fill="#e1b66e" fill-opacity="1"><g transform="translate(98.280893, 31.030512)"><g><path d="M 3.15625 0 C 3.226562 -0.394531 3.265625 -0.828125 3.265625 -1.296875 L 3.265625 -23.234375 L 6.765625 -23.234375 L 16.015625 -8.65625 L 16.015625 -22.046875 C 16.015625 -22.679688 15.957031 -23.078125 15.84375 -23.234375 L 20.5625 -23.234375 C 20.5 -22.765625 20.46875 -22.25 20.46875 -21.6875 L 20.46875 0 L 16.828125 0 L 7.71875 -13.984375 L 7.71875 0 Z M 3.15625 0 "/></g></g></g><g fill="#e1b66e" fill-opacity="1"><g transform="translate(126.800295, 31.030512)"><g><path d="M 4.703125 0.140625 C 3.703125 0.046875 2.53125 0 1.1875 0 L -0.1875 0 L 7.40625 -21.28125 C 7.738281 -22.238281 7.90625 -22.796875 7.90625 -22.953125 C 7.90625 -23.109375 7.898438 -23.207031 7.890625 -23.25 L 7.90625 -23.28125 C 8.664062 -23.25 9.472656 -23.234375 10.328125 -23.234375 C 11.023438 -23.234375 11.859375 -23.242188 12.828125 -23.265625 L 12.859375 -23.234375 C 12.828125 -23.179688 12.8125 -23.113281 12.8125 -23.03125 C 12.8125 -22.8125 12.988281 -22.222656 13.34375 -21.265625 L 21.09375 0.046875 C 20.863281 0.0351562 20.59375 0.03125 20.28125 0.03125 C 20.28125 0.03125 19.976562 0.0195312 19.375 0 C 19.082031 0 18.816406 0 18.578125 0 L 15.875 0 L 14.234375 -5.03125 L 6.34375 -5.03125 Z M 12.875 -9.21875 L 10.234375 -17.34375 L 7.671875 -9.21875 Z M 12.875 -9.21875 "/></g></g></g><g fill="#e1b66e" fill-opacity="1"><g transform="translate(152.491484, 31.030512)"><g/></g></g><g fill="#e1b66e" fill-opacity="1"><g transform="translate(169.139375, 31.030512)"><g><path d="M 4.703125 0.140625 C 3.703125 0.046875 2.53125 0 1.1875 0 L -0.1875 0 L 7.40625 -21.28125 C 7.738281 -22.238281 7.90625 -22.796875 7.90625 -22.953125 C 7.90625 -23.109375 7.898438 -23.207031 7.890625 -23.25 L 7.90625 -23.28125 C 8.664062 -23.25 9.472656 -23.234375 10.328125 -23.234375 C 11.023438 -23.234375 11.859375 -23.242188 12.828125 -23.265625 L 12.859375 -23.234375 C 12.828125 -23.179688 12.8125 -23.113281 12.8125 -23.03125 C 12.8125 -22.8125 12.988281 -22.222656 13.34375 -21.265625 L 21.09375 0.046875 C 20.863281 0.0351562 20.59375 0.03125 20.28125 0.03125 C 20.28125 0.03125 19.976562 0.0195312 19.375 0 C 19.082031 0 18.816406 0 18.578125 0 L 15.875 0 L 14.234375 -5.03125 L 6.34375 -5.03125 Z M 12.875 -9.21875 L 10.234375 -17.34375 L 7.671875 -9.21875 Z M 12.875 -9.21875 "/></g></g></g><g fill="#e1b66e" fill-opacity="1"><g transform="translate(194.830563, 31.030512)"><g><path d="M 3.15625 0 C 3.226562 -0.394531 3.265625 -0.828125 3.265625 -1.296875 L 3.265625 -23.234375 L 6.765625 -23.234375 L 16.015625 -8.65625 L 16.015625 -22.046875 C 16.015625 -22.679688 15.957031 -23.078125 15.84375 -23.234375 L 20.5625 -23.234375 C 20.5 -22.765625 20.46875 -22.25 20.46875 -21.6875 L 20.46875 0 L 16.828125 0 L 7.71875 -13.984375 L 7.71875 0 Z M 3.15625 0 "/></g></g></g><g fill="#e1b66e" fill-opacity="1"><g transform="translate(223.349965, 31.030512)"><g><path d="M 11.390625 0.109375 C 10.828125 0.0351562 9.390625 0 7.078125 0 L 6.515625 0 L 6.515625 -19.3125 L 3.0625 -19.3125 C 2.03125 -19.3125 1.421875 -19.257812 1.234375 -19.15625 C 1.046875 -19.050781 0.898438 -18.957031 0.796875 -18.875 L 0.75 -18.890625 L 0.75 -23.359375 L 0.796875 -23.421875 C 1.179688 -23.296875 2.21875 -23.234375 3.90625 -23.234375 L 14.859375 -23.234375 C 15.878906 -23.234375 16.484375 -23.285156 16.671875 -23.390625 C 16.859375 -23.492188 17.003906 -23.582031 17.109375 -23.65625 L 17.171875 -23.640625 L 17.171875 -19.171875 L 17.109375 -19.125 C 16.722656 -19.25 15.6875 -19.3125 14 -19.3125 L 11.390625 -19.3125 Z M 11.390625 0.109375 "/></g></g></g><g fill="#e1b66e" fill-opacity="1"><g transform="translate(246.055818, 31.030512)"><g><path d="M 4.90625 -2.75 C 3.84375 -3.769531 3.003906 -4.988281 2.390625 -6.40625 C 1.785156 -7.832031 1.484375 -9.390625 1.484375 -11.078125 C 1.484375 -12.773438 1.769531 -14.378906 2.34375 -15.890625 C 2.914062 -17.398438 3.726562 -18.734375 4.78125 -19.890625 C 5.84375 -21.046875 7.125 -21.960938 8.625 -22.640625 C 10.125 -23.316406 11.804688 -23.65625 13.671875 -23.65625 C 16.890625 -23.65625 19.597656 -22.644531 21.796875 -20.625 C 24.148438 -18.457031 25.328125 -15.535156 25.328125 -11.859375 C 25.328125 -8.296875 24.113281 -5.332031 21.6875 -2.96875 C 20.195312 -1.507812 18.421875 -0.507812 16.359375 0.03125 C 15.347656 0.300781 14.164062 0.4375 12.8125 0.4375 C 11.457031 0.4375 10.066406 0.160156 8.640625 -0.390625 C 7.210938 -0.953125 5.96875 -1.738281 4.90625 -2.75 Z M 6.34375 -11.3125 C 6.34375 -10.226562 6.519531 -9.234375 6.875 -8.328125 C 7.238281 -7.421875 7.738281 -6.640625 8.375 -5.984375 C 9.738281 -4.609375 11.492188 -3.921875 13.640625 -3.921875 C 15.671875 -3.921875 17.304688 -4.582031 18.546875 -5.90625 C 19.804688 -7.269531 20.4375 -9.125 20.4375 -11.46875 C 20.4375 -13.6875 19.835938 -15.535156 18.640625 -17.015625 C 17.335938 -18.597656 15.566406 -19.390625 13.328125 -19.390625 C 11.148438 -19.390625 9.421875 -18.582031 8.140625 -16.96875 C 6.941406 -15.46875 6.34375 -13.582031 6.34375 -11.3125 Z M 6.34375 -11.3125 "/></g></g></g><g fill="#e1b66e" fill-opacity="1"><g transform="translate(277.647846, 31.030512)"><g><path d="M 3.15625 0 C 3.226562 -0.394531 3.265625 -0.828125 3.265625 -1.296875 L 3.265625 -23.234375 L 6.765625 -23.234375 L 16.015625 -8.65625 L 16.015625 -22.046875 C 16.015625 -22.679688 15.957031 -23.078125 15.84375 -23.234375 L 20.5625 -23.234375 C 20.5 -22.765625 20.46875 -22.25 20.46875 -21.6875 L 20.46875 0 L 16.828125 0 L 7.71875 -13.984375 L 7.71875 0 Z M 3.15625 0 "/></g></g></g><g fill="#e1b66e" fill-opacity="1"><g transform="translate(306.167248, 31.030512)"><g><path d="M 3.546875 -23.296875 C 4.710938 -23.253906 5.414062 -23.234375 5.65625 -23.234375 L 6.921875 -23.234375 C 7.535156 -23.234375 8.03125 -23.273438 8.40625 -23.359375 L 8.375 0 L 3.546875 0 Z M 3.546875 -23.296875 "/></g></g></g><g fill="#e1b66e" fill-opacity="1"><g transform="translate(322.902413, 31.030512)"><g><path d="M 3.15625 0 C 3.226562 -0.394531 3.265625 -0.828125 3.265625 -1.296875 L 3.265625 -23.234375 L 6.765625 -23.234375 L 16.015625 -8.65625 L 16.015625 -22.046875 C 16.015625 -22.679688 15.957031 -23.078125 15.84375 -23.234375 L 20.5625 -23.234375 C 20.5 -22.765625 20.46875 -22.25 20.46875 -21.6875 L 20.46875 0 L 16.828125 0 L 7.71875 -13.984375 L 7.71875 0 Z M 3.15625 0 "/></g></g></g><g fill="#e1b66e" fill-opacity="1"><g transform="translate(351.421831, 31.030512)"><g><path d="M 3.546875 -23.296875 C 4.710938 -23.253906 5.414062 -23.234375 5.65625 -23.234375 L 6.921875 -23.234375 C 7.535156 -23.234375 8.03125 -23.273438 8.40625 -23.359375 L 8.375 0 L 3.546875 0 Z M 3.546875 -23.296875 "/></g></g></g></g></g><g transform="matrix(1, 0, 0, 1, 103, 214)"><g clip-path="url(#3e12acd4b4)"><g fill="#ffffff" fill-opacity="1"><g transform="translate(0.73183, 19.300307)"><g><path d="M 5.125 0.265625 C 4.007812 0.265625 2.957031 0.171875 1.96875 -0.015625 L 1.96875 -13.828125 C 2.882812 -13.941406 3.941406 -14 5.140625 -14 C 6.335938 -14 7.421875 -13.832031 8.390625 -13.5 C 9.367188 -13.175781 10.1875 -12.710938 10.84375 -12.109375 C 12.164062 -10.890625 12.828125 -9.191406 12.828125 -7.015625 C 12.828125 -4.566406 12.09375 -2.710938 10.625 -1.453125 C 9.300781 -0.304688 7.46875 0.265625 5.125 0.265625 Z M 4.65625 -2.265625 C 5.101562 -2.179688 5.550781 -2.140625 6 -2.140625 C 6.445312 -2.140625 6.925781 -2.226562 7.4375 -2.40625 C 7.957031 -2.582031 8.410156 -2.851562 8.796875 -3.21875 C 9.609375 -4.007812 10.015625 -5.15625 10.015625 -6.65625 C 10.015625 -9.113281 9.113281 -10.628906 7.3125 -11.203125 C 6.71875 -11.390625 6.035156 -11.484375 5.265625 -11.484375 L 4.984375 -11.484375 C 4.878906 -11.484375 4.769531 -11.476562 4.65625 -11.46875 Z M 4.65625 -2.265625 "/></g></g></g><g fill="#ffffff" fill-opacity="1"><g transform="translate(15.768876, 19.300307)"><g><path d="M 2.09375 -13.78125 C 2.78125 -13.75 3.195312 -13.734375 3.34375 -13.734375 L 4.09375 -13.734375 C 4.457031 -13.734375 4.75 -13.765625 4.96875 -13.828125 L 4.953125 0 L 2.09375 0 Z M 2.09375 -13.78125 "/></g></g></g><g fill="#ffffff" fill-opacity="1"><g transform="translate(23.784219, 19.300307)"><g><path d="M 13.09375 -8.28125 C 12.96875 -8.050781 12.90625 -7.488281 12.90625 -6.59375 L 12.90625 -3.40625 C 12.90625 -2.425781 12.398438 -1.582031 11.390625 -0.875 C 10.347656 -0.113281 9.078125 0.265625 7.578125 0.265625 C 5.484375 0.265625 3.8125 -0.394531 2.5625 -1.71875 C 1.351562 -2.96875 0.75 -4.566406 0.75 -6.515625 C 0.75 -8.578125 1.363281 -10.296875 2.59375 -11.671875 C 3.96875 -13.222656 5.851562 -14 8.25 -14 C 9.851562 -14 11.125 -13.6875 12.0625 -13.0625 L 11.90625 -10.015625 L 11.8125 -10 C 11.570312 -10.414062 11.097656 -10.757812 10.390625 -11.03125 C 9.710938 -11.289062 9.003906 -11.421875 8.265625 -11.421875 C 7.523438 -11.421875 6.878906 -11.300781 6.328125 -11.0625 C 5.773438 -10.832031 5.304688 -10.5 4.921875 -10.0625 C 4.109375 -9.175781 3.703125 -8 3.703125 -6.53125 C 3.703125 -5.257812 4.054688 -4.238281 4.765625 -3.46875 C 5.484375 -2.707031 6.410156 -2.328125 7.546875 -2.328125 C 8.785156 -2.328125 9.625 -2.648438 10.0625 -3.296875 C 10.195312 -3.503906 10.265625 -3.738281 10.265625 -4 L 10.265625 -5.71875 L 8.9375 -5.71875 C 8.21875 -5.71875 7.828125 -5.65625 7.765625 -5.53125 L 7.734375 -5.53125 L 7.640625 -8.234375 C 7.835938 -8.179688 8.617188 -8.15625 9.984375 -8.15625 L 11.203125 -8.15625 C 11.960938 -8.15625 12.582031 -8.207031 13.0625 -8.3125 Z M 13.09375 -8.28125 "/></g></g></g><g fill="#ffffff" fill-opacity="1"><g transform="translate(38.821266, 19.300307)"><g><path d="M 2.09375 -13.78125 C 2.78125 -13.75 3.195312 -13.734375 3.34375 -13.734375 L 4.09375 -13.734375 C 4.457031 -13.734375 4.75 -13.765625 4.96875 -13.828125 L 4.953125 0 L 2.09375 0 Z M 2.09375 -13.78125 "/></g></g></g><g fill="#ffffff" fill-opacity="1"><g transform="translate(46.836609, 19.300307)"><g><path d="M 6.734375 0.0625 C 6.398438 0.0195312 5.550781 0 4.1875 0 L 3.859375 0 L 3.859375 -11.421875 L 1.8125 -11.421875 C 1.207031 -11.421875 0.847656 -11.390625 0.734375 -11.328125 C 0.617188 -11.265625 0.53125 -11.210938 0.46875 -11.171875 L 0.4375 -11.171875 L 0.4375 -13.828125 L 0.46875 -13.859375 C 0.695312 -13.773438 1.3125 -13.734375 2.3125 -13.734375 L 8.796875 -13.734375 C 9.398438 -13.734375 9.753906 -13.765625 9.859375 -13.828125 C 9.972656 -13.890625 10.0625 -13.945312 10.125 -14 L 10.15625 -13.984375 L 10.15625 -11.34375 L 10.125 -11.3125 C 9.894531 -11.382812 9.28125 -11.421875 8.28125 -11.421875 L 6.734375 -11.421875 Z M 6.734375 0.0625 "/></g></g></g><g fill="#ffffff" fill-opacity="1"><g transform="translate(58.383456, 19.300307)"><g><path d="M 2.78125 0.078125 C 2.1875 0.0234375 1.492188 0 0.703125 0 L -0.109375 0 L 4.375 -12.59375 C 4.570312 -13.15625 4.671875 -13.484375 4.671875 -13.578125 C 4.671875 -13.671875 4.671875 -13.726562 4.671875 -13.75 L 4.671875 -13.765625 C 5.117188 -13.742188 5.597656 -13.734375 6.109375 -13.734375 C 6.515625 -13.734375 7.007812 -13.742188 7.59375 -13.765625 L 7.609375 -13.734375 C 7.585938 -13.710938 7.578125 -13.675781 7.578125 -13.625 C 7.578125 -13.488281 7.679688 -13.140625 7.890625 -12.578125 L 12.484375 0.03125 C 12.335938 0.0195312 12.175781 0.015625 12 0.015625 C 12 0.015625 11.816406 0.0078125 11.453125 0 C 11.285156 0 11.128906 0 10.984375 0 L 9.390625 0 L 8.421875 -2.96875 L 3.75 -2.96875 Z M 7.609375 -5.453125 L 6.046875 -10.265625 L 4.53125 -5.453125 Z M 7.609375 -5.453125 "/></g></g></g><g fill="#ffffff" fill-opacity="1"><g transform="translate(71.696063, 19.300307)"><g><path d="M 3.796875 0 C 2.773438 0 2.101562 0.0195312 1.78125 0.0625 L 1.78125 -13.796875 C 1.945312 -13.753906 2.285156 -13.734375 2.796875 -13.734375 C 3.316406 -13.734375 3.925781 -13.75 4.625 -13.78125 L 4.625 -2.484375 L 6.75 -2.484375 C 7.375 -2.484375 7.875 -2.503906 8.25 -2.546875 C 8.195312 -0.929688 8.171875 -0.09375 8.171875 -0.03125 L 8.171875 0.078125 C 7.492188 0.0234375 6.359375 0 4.765625 0 Z M 3.796875 0 "/></g></g></g><g fill="#ffffff" fill-opacity="1"><g transform="translate(81.477166, 19.300307)"><g/></g></g><g fill="#ffffff" fill-opacity="1"><g transform="translate(89.440888, 19.300307)"><g><path d="M 10.078125 -12.96875 L 9.875 -9.9375 L 9.796875 -9.921875 C 9.285156 -10.679688 8.421875 -11.175781 7.203125 -11.40625 C 6.816406 -11.476562 6.445312 -11.515625 6.09375 -11.515625 C 5.738281 -11.515625 5.429688 -11.484375 5.171875 -11.421875 C 4.921875 -11.359375 4.707031 -11.269531 4.53125 -11.15625 C 4.15625 -10.90625 3.96875 -10.582031 3.96875 -10.1875 C 3.96875 -9.664062 4.132812 -9.273438 4.46875 -9.015625 C 4.875 -8.691406 5.554688 -8.46875 6.515625 -8.34375 C 7.472656 -8.21875 8.238281 -8.039062 8.8125 -7.8125 C 9.394531 -7.59375 9.875 -7.316406 10.25 -6.984375 C 10.945312 -6.347656 11.296875 -5.453125 11.296875 -4.296875 C 11.296875 -2.785156 10.726562 -1.617188 9.59375 -0.796875 C 8.613281 -0.0859375 7.378906 0.265625 5.890625 0.265625 C 4.691406 0.265625 3.503906 0.0351562 2.328125 -0.421875 C 1.941406 -0.578125 1.609375 -0.753906 1.328125 -0.953125 L 1.4375 -4.40625 L 1.484375 -4.4375 C 2.335938 -2.957031 3.738281 -2.21875 5.6875 -2.21875 C 7.070312 -2.21875 7.984375 -2.550781 8.421875 -3.21875 C 8.578125 -3.445312 8.65625 -3.703125 8.65625 -3.984375 C 8.65625 -4.265625 8.609375 -4.492188 8.515625 -4.671875 C 8.429688 -4.859375 8.285156 -5.015625 8.078125 -5.140625 C 7.679688 -5.398438 7.007812 -5.578125 6.0625 -5.671875 C 5.125 -5.765625 4.351562 -5.929688 3.75 -6.171875 C 3.144531 -6.421875 2.664062 -6.726562 2.3125 -7.09375 C 1.664062 -7.757812 1.34375 -8.679688 1.34375 -9.859375 C 1.34375 -11.085938 1.773438 -12.082031 2.640625 -12.84375 C 3.515625 -13.613281 4.691406 -14 6.171875 -14 C 7.660156 -14 8.960938 -13.65625 10.078125 -12.96875 Z M 10.078125 -12.96875 "/></g></g></g><g fill="#ffffff" fill-opacity="1"><g transform="translate(102.712191, 19.300307)"><g><path d="M 6.734375 0.0625 C 6.398438 0.0195312 5.550781 0 4.1875 0 L 3.859375 0 L 3.859375 -11.421875 L 1.8125 -11.421875 C 1.207031 -11.421875 0.847656 -11.390625 0.734375 -11.328125 C 0.617188 -11.265625 0.53125 -11.210938 0.46875 -11.171875 L 0.4375 -11.171875 L 0.4375 -13.828125 L 0.46875 -13.859375 C 0.695312 -13.773438 1.3125 -13.734375 2.3125 -13.734375 L 8.796875 -13.734375 C 9.398438 -13.734375 9.753906 -13.765625 9.859375 -13.828125 C 9.972656 -13.890625 10.0625 -13.945312 10.125 -14 L 10.15625 -13.984375 L 10.15625 -11.34375 L 10.125 -11.3125 C 9.894531 -11.382812 9.28125 -11.421875 8.28125 -11.421875 L 6.734375 -11.421875 Z M 6.734375 0.0625 "/></g></g></g><g fill="#ffffff" fill-opacity="1"><g transform="translate(114.259037, 19.300307)"><g><path d="M 9.609375 -13.796875 C 10.035156 -13.753906 10.390625 -13.734375 10.671875 -13.734375 L 11.53125 -13.734375 C 11.820312 -13.734375 12.125 -13.765625 12.4375 -13.828125 L 12.4375 -5.28125 C 12.4375 -3.582031 11.921875 -2.222656 10.890625 -1.203125 C 9.921875 -0.222656 8.703125 0.265625 7.234375 0.265625 C 5.628906 0.265625 4.332031 -0.148438 3.34375 -0.984375 C 2.238281 -1.921875 1.6875 -3.273438 1.6875 -5.046875 L 1.6875 -13.796875 C 2.257812 -13.753906 2.796875 -13.734375 3.296875 -13.734375 C 3.804688 -13.734375 4.226562 -13.765625 4.5625 -13.828125 L 4.5625 -4.90625 C 4.5625 -4.039062 4.820312 -3.363281 5.34375 -2.875 C 5.84375 -2.4375 6.460938 -2.21875 7.203125 -2.21875 C 8.304688 -2.21875 9.039062 -2.785156 9.40625 -3.921875 C 9.539062 -4.328125 9.609375 -4.828125 9.609375 -5.421875 Z M 9.609375 -13.796875 "/></g></g></g><g fill="#ffffff" fill-opacity="1"><g transform="translate(129.337388, 19.300307)"><g><path d="M 5.125 0.265625 C 4.007812 0.265625 2.957031 0.171875 1.96875 -0.015625 L 1.96875 -13.828125 C 2.882812 -13.941406 3.941406 -14 5.140625 -14 C 6.335938 -14 7.421875 -13.832031 8.390625 -13.5 C 9.367188 -13.175781 10.1875 -12.710938 10.84375 -12.109375 C 12.164062 -10.890625 12.828125 -9.191406 12.828125 -7.015625 C 12.828125 -4.566406 12.09375 -2.710938 10.625 -1.453125 C 9.300781 -0.304688 7.46875 0.265625 5.125 0.265625 Z M 4.65625 -2.265625 C 5.101562 -2.179688 5.550781 -2.140625 6 -2.140625 C 6.445312 -2.140625 6.925781 -2.226562 7.4375 -2.40625 C 7.957031 -2.582031 8.410156 -2.851562 8.796875 -3.21875 C 9.609375 -4.007812 10.015625 -5.15625 10.015625 -6.65625 C 10.015625 -9.113281 9.113281 -10.628906 7.3125 -11.203125 C 6.71875 -11.390625 6.035156 -11.484375 5.265625 -11.484375 L 4.984375 -11.484375 C 4.878906 -11.484375 4.769531 -11.476562 4.65625 -11.46875 Z M 4.65625 -2.265625 "/></g></g></g><g fill="#ffffff" fill-opacity="1"><g transform="translate(144.374434, 19.300307)"><g><path d="M 2.09375 -13.78125 C 2.78125 -13.75 3.195312 -13.734375 3.34375 -13.734375 L 4.09375 -13.734375 C 4.457031 -13.734375 4.75 -13.765625 4.96875 -13.828125 L 4.953125 0 L 2.09375 0 Z M 2.09375 -13.78125 "/></g></g></g><g fill="#ffffff" fill-opacity="1"><g transform="translate(152.389778, 19.300307)"><g><path d="M 2.90625 -1.625 C 2.28125 -2.226562 1.785156 -2.945312 1.421875 -3.78125 C 1.054688 -4.625 0.875 -5.546875 0.875 -6.546875 C 0.875 -7.554688 1.039062 -8.507812 1.375 -9.40625 C 1.71875 -10.300781 2.203125 -11.085938 2.828125 -11.765625 C 3.453125 -12.441406 4.207031 -12.984375 5.09375 -13.390625 C 5.988281 -13.796875 6.988281 -14 8.09375 -14 C 9.988281 -14 11.585938 -13.398438 12.890625 -12.203125 C 14.285156 -10.921875 14.984375 -9.191406 14.984375 -7.015625 C 14.984375 -4.910156 14.265625 -3.15625 12.828125 -1.75 C 11.953125 -0.894531 10.898438 -0.304688 9.671875 0.015625 C 9.078125 0.179688 8.378906 0.265625 7.578125 0.265625 C 6.773438 0.265625 5.953125 0.0976562 5.109375 -0.234375 C 4.265625 -0.566406 3.53125 -1.03125 2.90625 -1.625 Z M 3.75 -6.6875 C 3.75 -6.050781 3.851562 -5.460938 4.0625 -4.921875 C 4.28125 -4.390625 4.578125 -3.929688 4.953125 -3.546875 C 5.765625 -2.734375 6.800781 -2.328125 8.0625 -2.328125 C 9.269531 -2.328125 10.238281 -2.710938 10.96875 -3.484375 C 11.71875 -4.296875 12.09375 -5.394531 12.09375 -6.78125 C 12.09375 -8.09375 11.734375 -9.1875 11.015625 -10.0625 C 10.253906 -11 9.207031 -11.46875 7.875 -11.46875 C 6.59375 -11.46875 5.570312 -10.992188 4.8125 -10.046875 C 4.101562 -9.148438 3.75 -8.03125 3.75 -6.6875 Z M 3.75 -6.6875 "/></g></g></g></g></g></svg>