<svg xmlns="http://www.w3.org/2000/svg" xmlns:xlink="http://www.w3.org/1999/xlink" width="300" zoomAndPan="magnify" viewBox="0 0 224.87999 299.999988" height="400" preserveAspectRatio="xMidYMid meet" version="1.0"><defs><clipPath id="5336a57a95"><path d="M 104 221 L 121 221 L 121 262.441406 L 104 262.441406 Z M 104 221 " clip-rule="nonzero"/></clipPath><clipPath id="6b8474417e"><path d="M 104 37.558594 L 121 37.558594 L 121 79 L 104 79 Z M 104 37.558594 " clip-rule="nonzero"/></clipPath><clipPath id="d5a4b5da5b"><path d="M 184 141 L 224.761719 141 L 224.761719 159 L 184 159 Z M 184 141 " clip-rule="nonzero"/></clipPath></defs><path fill="#ffffff" d="M 112.671875 209.78125 C 79.707031 209.78125 52.886719 182.964844 52.886719 150 C 52.886719 117.035156 79.707031 90.21875 112.671875 90.21875 C 145.636719 90.21875 172.453125 117.035156 172.453125 150 C 172.453125 182.964844 145.632812 209.78125 112.671875 209.78125 Z M 112.671875 106.773438 C 88.835938 106.773438 69.441406 126.164062 69.441406 150 C 69.441406 173.835938 88.835938 193.226562 112.671875 193.226562 C 136.507812 193.226562 155.898438 173.835938 155.898438 150 C 155.898438 126.164062 136.507812 106.773438 112.671875 106.773438 Z M 112.671875 106.773438 " fill-opacity="1" fill-rule="nonzero"/><g clip-path="url(#5336a57a95)"><path fill="#ffffff" d="M 112.441406 262.441406 C 107.871094 262.441406 104.160156 258.734375 104.160156 254.160156 L 104.160156 230.246094 C 104.160156 225.675781 107.867188 221.96875 112.441406 221.96875 C 117.011719 221.96875 120.71875 225.675781 120.71875 230.246094 L 120.71875 254.160156 C 120.71875 258.734375 117.011719 262.441406 112.441406 262.441406 Z M 112.441406 262.441406 " fill-opacity="1" fill-rule="nonzero"/></g><g clip-path="url(#6b8474417e)"><path fill="#ffffff" d="M 112.441406 78.027344 C 107.871094 78.027344 104.160156 74.324219 104.160156 69.75 L 104.160156 45.839844 C 104.160156 41.265625 107.871094 37.558594 112.441406 37.558594 C 117.011719 37.558594 120.71875 41.265625 120.71875 45.839844 L 120.71875 69.753906 C 120.71875 74.324219 117.011719 78.027344 112.441406 78.027344 Z M 112.441406 78.027344 " fill-opacity="1" fill-rule="nonzero"/></g><path fill="#ffffff" d="M 38.785156 231.929688 C 36.667969 231.929688 34.546875 231.121094 32.933594 229.503906 C 29.699219 226.273438 29.699219 221.03125 32.933594 217.800781 L 49.84375 200.890625 C 53.074219 197.65625 58.316406 197.65625 61.546875 200.890625 C 64.78125 204.121094 64.78125 209.363281 61.546875 212.59375 L 44.636719 229.503906 C 43.023438 231.121094 40.902344 231.929688 38.785156 231.929688 Z M 38.785156 231.929688 " fill-opacity="1" fill-rule="nonzero"/><path fill="#ffffff" d="M 169.183594 101.535156 C 167.066406 101.535156 164.945312 100.726562 163.332031 99.109375 C 160.097656 95.875 160.097656 90.636719 163.332031 87.402344 L 180.242188 70.492188 C 183.472656 67.257812 188.714844 67.257812 191.949219 70.492188 C 195.179688 73.726562 195.179688 78.964844 191.949219 82.199219 L 175.039062 99.109375 C 173.421875 100.726562 171.304688 101.535156 169.183594 101.535156 Z M 169.183594 101.535156 " fill-opacity="1" fill-rule="nonzero"/><path fill="#ffffff" d="M 32.191406 158.277344 L 8.277344 158.277344 C 3.707031 158.277344 0 154.570312 0 150 C 0 145.429688 3.707031 141.722656 8.277344 141.722656 L 32.191406 141.722656 C 36.761719 141.722656 40.46875 145.425781 40.46875 150 C 40.46875 154.574219 36.761719 158.277344 32.191406 158.277344 Z M 32.191406 158.277344 " fill-opacity="1" fill-rule="nonzero"/><g clip-path="url(#d5a4b5da5b)"><path fill="#ffffff" d="M 216.601562 158.277344 L 192.6875 158.277344 C 188.113281 158.277344 184.410156 154.574219 184.410156 150 C 184.410156 145.425781 188.113281 141.722656 192.6875 141.722656 L 216.601562 141.722656 C 221.175781 141.722656 224.878906 145.425781 224.878906 150 C 224.878906 154.574219 221.175781 158.277344 216.601562 158.277344 Z M 216.601562 158.277344 " fill-opacity="1" fill-rule="nonzero"/></g><path fill="#ffffff" d="M 55.695312 101.535156 C 53.578125 101.535156 51.457031 100.726562 49.84375 99.109375 L 32.933594 82.199219 C 29.699219 78.964844 29.699219 73.726562 32.933594 70.492188 C 36.164062 67.257812 41.40625 67.257812 44.636719 70.492188 L 61.546875 87.402344 C 64.78125 90.636719 64.78125 95.875 61.546875 99.109375 C 59.933594 100.726562 57.8125 101.535156 55.695312 101.535156 Z M 55.695312 101.535156 " fill-opacity="1" fill-rule="nonzero"/><path fill="#ffffff" d="M 186.09375 231.929688 C 183.976562 231.929688 181.855469 231.121094 180.242188 229.503906 L 163.332031 212.59375 C 160.097656 209.363281 160.097656 204.121094 163.332031 200.890625 C 166.5625 197.65625 171.804688 197.65625 175.039062 200.890625 L 191.949219 217.800781 C 195.179688 221.03125 195.179688 226.273438 191.949219 229.503906 C 190.328125 231.121094 188.214844 231.929688 186.09375 231.929688 Z M 186.09375 231.929688 " fill-opacity="1" fill-rule="nonzero"/></svg>